# xmcd
#
# Track frame offsets:
#	150
#	24433
#	51334
#	70802
#	90882
#	104323
#	120884
#	143386
#	167999
#	200169
#
# Disc length: 3001 seconds
#
# Revision: 1
# Processed by: cddbd v1.5.2PL0 Copyright (c) Steve Scherf et al.
# Submitted via: audiograbber 1.83.01
#
DISCID=7c0bb70a
DTITLE=Ryan McCarrey - Forward in Reverse
DYEAR=2007
DGENRE=Blues
TTITLE0=Right in all the wrong
TTITLE1=Joyride
TTITLE2=The one that got away
TTITLE3=Watch yourself
TTITLE4=Texas special
TTITLE5=Someone like you
TTITLE6=Second time around
TTITLE7=Cryin over you
TTITLE8=Mystic Dream
TTITLE9=Blue eyed angel blues
EXTD=Born in 1986
EXTT0=
EXTT1=
EXTT2=
EXTT3=
EXTT4=
EXTT5=
EXTT6=
EXTT7=
EXTT8=
EXTT9=
PLAYORDER=
